<?xml version="1.0" encoding="UTF-8" standalone="no"?>
<!DOCTYPE svg PUBLIC "-//W3C//DTD SVG 1.1//EN" "http://www.w3.org/Graphics/SVG/1.1/DTD/svg11.dtd">
<svg version="1.1" xmlns="http://www.w3.org/2000/svg" xmlns:xlink="http://www.w3.org/1999/xlink" preserveAspectRatio="xMidYMid meet" viewBox="0 0 640 640" width="1400" height="1400"><defs><path d="M461.57 482.7L464.12 403.64L475.57 398.07L470.48 493.57L461.57 482.7Z" id="aeKNcNneB"></path><path d="M461.07 330.57L341.57 326.07L337.57 317.07L468.07 322.57L472.57 324.07L461.07 330.57Z" id="be1ze2821"></path><path d="M146.69 166.69L153.44 246.09L229.42 375.5L215.91 372.56L178.77 326.97L129.8 240.21L116.3 156.39L129.8 147.57L146.69 147.57L146.69 166.69Z" id="d4vFOcDjOr"></path><path d="M449.71 400.44L396.21 407.78L396.21 416.44L428.96 427.78L484.05 393.11L486.38 385.11L449.71 400.44Z" id="aDCFh9Jdi"></path><path d="M475.07 398.07L470.57 493.89L478.29 485.07L486.38 385.11L475.07 398.07Z" id="bdrj7Bxat"></path><path d="M166.91 220.35L207.23 342.65L350.86 346.63L292.91 220.35L166.91 220.35Z" id="h1DG6pSxVt"></path><path d="M182.5 215.47L187.64 225.35L295.62 225.35L282.77 205.6L182.5 215.47Z" id="b1dqegqx3s"></path><path d="M187.74 225.35L183.99 215.47L284.07 205.6L294.07 187.08L279.06 156.21L260.3 141.4L141.46 141.4L158.97 163.62L165.23 215.47L168.98 225.35L187.74 225.35Z" id="aA2swasBc"></path><path d="M161.48 166.56L166.65 216.89L213.21 338.93L197.69 338.93L143.37 226.95L136.9 161.53L131.73 152.72L143.37 141.4L161.48 166.56Z" id="dciDi4CS6"></path><path d="M193.87 339.92L179.28 346.63L143.46 299.64L162.03 296.95L193.87 339.92Z" id="b1aYeqC1ra"></path><path d="M190.37 335.23L178.02 342.63L369.38 353.74L378.02 346.34L190.37 335.23Z" id="dqmVQGUmo"></path><path d="M178.02 342.63L178.02 353.74L143.46 310.53L143.46 299.42L178.02 342.63Z" id="aqykAmTuO"></path><path d="M178.02 353.74L362 360.67L370 353.74L178.02 342.63L178.02 353.74Z" id="d3IZfOoi5i"></path><path d="M398 494.82L391.33 512.64L370 521.9L381.33 509.18" id="e3BxFSJjUO"></path><path d="M360.5 360.88L374.92 373.5L384 369.13L369.05 353.74L360.5 360.88Z" id="a6ZjRq4hC6"></path><path d="M329.5 498.21L304.07 504.65L263.93 504.65L329.5 490.65L329.5 498.21Z" id="a2Us0SRKFD"></path><path d="M370 521.9L186.05 521.9L188.99 509.96L364.6 508.4L370 521.9Z" id="c1hERePvDe"></path><path d="M377.64 491.79L332.27 491.79L318 483.15L378.5 483.15L377.64 491.79Z" id="b2HWvJJ7Z7"></path><path d="M329.5 490.65L243.5 512.15L186.5 513.28L320 483.15L329.5 490.65Z" id="b3u6FoUBXO"></path><path d="M366.81 512.15L242 512.15L267.98 504.35L377 502.4L366.81 512.15Z" id="a2n42hURiy"></path><path d="M373 504.65L364.5 512.65L370 521.9L381.33 509.23L373 504.65Z" id="aDxZP0Oi6"></path><path d="M381.33 509.23L373 505.9L373 372.9L384 368.67L381.33 509.23Z" id="auFmrTR8t"></path><path d="M182.5 353.74L204 386.65L250.5 438.95L279.5 438.95L373 433.15L373 412.15L265 424.15L250.5 418.65L204 353.74L182.5 353.74Z" id="a337qIcIAk"></path><path d="M203.25 353.74L250.43 418.59L266.67 424.67L373.74 412.5L374.5 372.44L326.98 381.06L264.64 401.35L247.9 373.78L219.48 360.77L216.95 353.74L203.25 353.74Z" id="e1cf3jOfuW"></path><path d="M326.77 382.64L263.64 406.94L248.35 376.85L218.78 361.8L216.75 352.62L361.76 360.63L374.5 372.8L326.77 382.64Z" id="c3u7KiltuL"></path><path d="M396.21 409.77L452.12 402.67L465.29 374.77L448.43 356.58L396.21 367.27L396.21 409.77Z" id="a9KnDSPezv"></path><path d="M460.57 368.94L450.57 402.67L499.07 379.92L511.07 360.67L460.57 368.94Z" id="b1pvL61NeC"></path><path d="M448.88 356.58L396.67 367.28L396.67 363.62L389.75 356.58L466.71 342.63L448.88 356.58Z" id="a3dieA9bz2"></path><path d="M424.93 412.31C430.37 412.34 434.75 416.24 434.72 421C434.68 425.76 430.25 429.59 424.81 429.56C419.36 429.52 414.98 425.63 406.72 420.81C415.05 416.1 419.48 412.27 424.93 412.31Z" id="d4sy0IWeuy"></path><path d="M396.21 432.06L427.21 429.52L427.21 412.31L396.21 415.32L396.21 432.06Z" id="aFzxUDajG"></path><path d="M373 489.57L373 498.21L329.5 498.21L329.5 490.65L373 489.57Z" id="byD153DE8"></path><path d="M396.21 489.57L458.57 489.57L461.07 483.15L396.21 483.15L396.21 489.57Z" id="c6N1cecP"></path><path d="M455 331.73L477.6 342.37L493.07 342.37L470.1 322.62L455 331.73Z" id="a2yhJhCYIg"></path><path d="M395.5 498.21L461.07 500.07L456.39 489.57L395.5 489.57L395.5 498.21Z" id="dZ4BPWXpO"></path><path d="M461.07 500.07L470.57 493.89L461.07 482.07L456.57 489.57L461.07 500.07Z" id="a23W5SgMqP"></path><path d="M502.42 341.13L511.07 361.21L458.44 375.5L445.5 356.66L465.68 341.96L502.42 341.13Z" id="a5SfIT0C4"></path><path d="M344.15 333.1L451.04 338.46L463.49 343.59L480.82 341.2L457.19 329.89L340.07 325.07L344.15 333.1Z" id="ajjN6wOh1"></path><path d="M382.68 368.95L381.33 510.29L396.15 500.95L398.17 363.62L382.68 368.95Z" id="b8LRRtc3FS"></path><path d="M377.68 346.49L399.08 364.83L382.2 369.65L368.21 354.53L377.68 346.49Z" id="a6nqc24zg"></path></defs><g><g><g><use xlink:href="#aeKNcNneB" opacity="1" fill="#5f503a" fill-opacity="1"></use><g><use xlink:href="#aeKNcNneB" opacity="1" fill-opacity="0" stroke="#000000" stroke-width="0" stroke-opacity="1"></use></g></g><g><use xlink:href="#be1ze2821" opacity="1" fill="#aa916b" fill-opacity="1"></use><g><use xlink:href="#be1ze2821" opacity="1" fill-opacity="0" stroke="#000000" stroke-width="0" stroke-opacity="1"></use></g></g><g><use xlink:href="#d4vFOcDjOr" opacity="1" fill="#967c57" fill-opacity="1"></use><g><use xlink:href="#d4vFOcDjOr" opacity="1" fill-opacity="0" stroke="#dbbfa0" stroke-width="0" stroke-opacity="1"></use></g></g><g><use xlink:href="#aDCFh9Jdi" opacity="1" fill="#8c7452" fill-opacity="1"></use><g><use xlink:href="#aDCFh9Jdi" opacity="1" fill-opacity="0" stroke="#000000" stroke-width="0" stroke-opacity="1"></use></g></g><g><use xlink:href="#bdrj7Bxat" opacity="1" fill="#aa916b" fill-opacity="1"></use><g><use xlink:href="#bdrj7Bxat" opacity="1" fill-opacity="0" stroke="#000000" stroke-width="0" stroke-opacity="1"></use></g></g><g><use xlink:href="#h1DG6pSxVt" opacity="1" fill="#514e4a" fill-opacity="1"></use><g><use xlink:href="#h1DG6pSxVt" opacity="1" fill-opacity="0" stroke="#dbbfa0" stroke-width="0" stroke-opacity="1"></use></g></g><g><use xlink:href="#b1dqegqx3s" opacity="1" fill="#474646" fill-opacity="1"></use><g><use xlink:href="#b1dqegqx3s" opacity="1" fill-opacity="0" stroke="#dbbfa0" stroke-width="0" stroke-opacity="1"></use></g></g><g><use xlink:href="#aA2swasBc" opacity="1" fill="#4d4b49" fill-opacity="1"></use><g><use xlink:href="#aA2swasBc" opacity="1" fill-opacity="0" stroke="#dbbfa0" stroke-width="0" stroke-opacity="1"></use></g></g><g><use xlink:href="#dciDi4CS6" opacity="1" fill="#4b4844" fill-opacity="1"></use><g><use xlink:href="#dciDi4CS6" opacity="1" fill-opacity="0" stroke="#dbbfa0" stroke-width="0" stroke-opacity="1"></use></g></g><g><use xlink:href="#b1aYeqC1ra" opacity="1" fill="#99825f" fill-opacity="1"></use><g><use xlink:href="#b1aYeqC1ra" opacity="1" fill-opacity="0" stroke="#dbbfa0" stroke-width="0" stroke-opacity="1"></use></g></g><g><use xlink:href="#dqmVQGUmo" opacity="1" fill="#aa916b" fill-opacity="1"></use><g><use xlink:href="#dqmVQGUmo" opacity="1" fill-opacity="0" stroke="#dbbfa0" stroke-width="0" stroke-opacity="1"></use></g></g><g><use xlink:href="#aqykAmTuO" opacity="1" fill="#5f503a" fill-opacity="1"></use><g><use xlink:href="#aqykAmTuO" opacity="1" fill-opacity="0" stroke="#dbbfa0" stroke-width="0" stroke-opacity="1"></use></g></g><g><use xlink:href="#d3IZfOoi5i" opacity="1" fill="#5f503a" fill-opacity="1"></use><g><use xlink:href="#d3IZfOoi5i" opacity="1" fill-opacity="0" stroke="#000000" stroke-width="0" stroke-opacity="1"></use></g></g><g><use xlink:href="#e3BxFSJjUO" opacity="1" fill="#aa916b" fill-opacity="1"></use><g><use xlink:href="#e3BxFSJjUO" opacity="1" fill-opacity="0" stroke="#000000" stroke-width="0" stroke-opacity="1"></use></g></g><g><use xlink:href="#a6ZjRq4hC6" opacity="1" fill="#5f503a" fill-opacity="1"></use><g><use xlink:href="#a6ZjRq4hC6" opacity="1" fill-opacity="0" stroke="#000000" stroke-width="0" stroke-opacity="1"></use></g></g><g><use xlink:href="#a2Us0SRKFD" opacity="1" fill="#5f503a" fill-opacity="1"></use><g><use xlink:href="#a2Us0SRKFD" opacity="1" fill-opacity="0" stroke="#000000" stroke-width="0" stroke-opacity="1"></use></g></g><g><use xlink:href="#c1hERePvDe" opacity="1" fill="#5f503a" fill-opacity="1"></use><g><use xlink:href="#c1hERePvDe" opacity="1" fill-opacity="0" stroke="#000000" stroke-width="0" stroke-opacity="1"></use></g></g><g><use xlink:href="#b2HWvJJ7Z7" opacity="1" fill="#aa916b" fill-opacity="1"></use><g><use xlink:href="#b2HWvJJ7Z7" opacity="1" fill-opacity="0" stroke="#000000" stroke-width="0" stroke-opacity="1"></use></g></g><g><use xlink:href="#b3u6FoUBXO" opacity="1" fill="#aa916b" fill-opacity="1"></use><g><use xlink:href="#b3u6FoUBXO" opacity="1" fill-opacity="0" stroke="#000000" stroke-width="0" stroke-opacity="1"></use></g></g><g><use xlink:href="#a2n42hURiy" opacity="1" fill="#aa916b" fill-opacity="1"></use><g><use xlink:href="#a2n42hURiy" opacity="1" fill-opacity="0" stroke="#000000" stroke-width="0" stroke-opacity="1"></use></g></g><g><use xlink:href="#aDxZP0Oi6" opacity="1" fill="#5f503a" fill-opacity="1"></use><g><use xlink:href="#aDxZP0Oi6" opacity="1" fill-opacity="0" stroke="#000000" stroke-width="0" stroke-opacity="1"></use></g></g><g><use xlink:href="#auFmrTR8t" opacity="1" fill="#5f503a" fill-opacity="1"></use><g><use xlink:href="#auFmrTR8t" opacity="1" fill-opacity="0" stroke="#000000" stroke-width="0" stroke-opacity="1"></use></g></g><g><use xlink:href="#a337qIcIAk" opacity="1" fill="#967c57" fill-opacity="1"></use><g><use xlink:href="#a337qIcIAk" opacity="1" fill-opacity="0" stroke="#000000" stroke-width="0" stroke-opacity="1"></use></g></g><g><use xlink:href="#e1cf3jOfuW" opacity="1" fill="#4b4844" fill-opacity="1"></use><g><use xlink:href="#e1cf3jOfuW" opacity="1" fill-opacity="0" stroke="#000000" stroke-width="0" stroke-opacity="1"></use></g></g><g><use xlink:href="#c3u7KiltuL" opacity="1" fill="#514e4a" fill-opacity="1"></use><g><use xlink:href="#c3u7KiltuL" opacity="1" fill-opacity="0" stroke="#000000" stroke-width="0" stroke-opacity="1"></use></g></g><g><use xlink:href="#a9KnDSPezv" opacity="1" fill="#4b4844" fill-opacity="1"></use><g><use xlink:href="#a9KnDSPezv" opacity="1" fill-opacity="0" stroke="#000000" stroke-width="0" stroke-opacity="1"></use></g></g><g><use xlink:href="#b1pvL61NeC" opacity="1" fill="#4b4844" fill-opacity="1"></use><g><use xlink:href="#b1pvL61NeC" opacity="1" fill-opacity="0" stroke="#000000" stroke-width="0" stroke-opacity="1"></use></g></g><g><use xlink:href="#a3dieA9bz2" opacity="1" fill="#514e4a" fill-opacity="1"></use><g><use xlink:href="#a3dieA9bz2" opacity="1" fill-opacity="0" stroke="#000000" stroke-width="0" stroke-opacity="1"></use></g></g><g><use xlink:href="#d4sy0IWeuy" opacity="1" fill="#967c57" fill-opacity="1"></use></g><g><use xlink:href="#aFzxUDajG" opacity="1" fill="#967c57" fill-opacity="1"></use><g><use xlink:href="#aFzxUDajG" opacity="1" fill-opacity="0" stroke="#000000" stroke-width="0" stroke-opacity="1"></use></g></g><g><use xlink:href="#byD153DE8" opacity="1" fill="#5f503a" fill-opacity="1"></use><g><use xlink:href="#byD153DE8" opacity="1" fill-opacity="0" stroke="#000000" stroke-width="0" stroke-opacity="1"></use></g></g><g><use xlink:href="#c6N1cecP" opacity="1" fill="#aa916b" fill-opacity="1"></use><g><use xlink:href="#c6N1cecP" opacity="1" fill-opacity="0" stroke="#000000" stroke-width="0" stroke-opacity="1"></use></g></g><g><use xlink:href="#a2yhJhCYIg" opacity="1" fill="#aa916b" fill-opacity="1"></use><g><use xlink:href="#a2yhJhCYIg" opacity="1" fill-opacity="0" stroke="#000000" stroke-width="0" stroke-opacity="1"></use></g></g><g><use xlink:href="#dZ4BPWXpO" opacity="1" fill="#5f503a" fill-opacity="1"></use><g><use xlink:href="#dZ4BPWXpO" opacity="1" fill-opacity="0" stroke="#000000" stroke-width="0" stroke-opacity="1"></use></g></g><g><use xlink:href="#a23W5SgMqP" opacity="1" fill="#5f503a" fill-opacity="1"></use><g><use xlink:href="#a23W5SgMqP" opacity="1" fill-opacity="0" stroke="#000000" stroke-width="0" stroke-opacity="1"></use></g></g><g><use xlink:href="#a5SfIT0C4" opacity="1" fill="#4b4844" fill-opacity="1"></use><g><use xlink:href="#a5SfIT0C4" opacity="1" fill-opacity="0" stroke="#000000" stroke-width="0" stroke-opacity="1"></use></g></g><g><use xlink:href="#ajjN6wOh1" opacity="1" fill="#5f503a" fill-opacity="1"></use><g><use xlink:href="#ajjN6wOh1" opacity="1" fill-opacity="0" stroke="#000000" stroke-width="0" stroke-opacity="1"></use></g></g><g><use xlink:href="#b8LRRtc3FS" opacity="1" fill="#aa916b" fill-opacity="1"></use><g><use xlink:href="#b8LRRtc3FS" opacity="1" fill-opacity="0" stroke="#000000" stroke-width="0" stroke-opacity="1"></use></g></g><g><use xlink:href="#a6nqc24zg" opacity="1" fill="#aa916b" fill-opacity="1"></use><g><use xlink:href="#a6nqc24zg" opacity="1" fill-opacity="0" stroke="#000000" stroke-width="0" stroke-opacity="1"></use></g></g></g></g></svg>