<?xml version="1.0" encoding="UTF-8"?>
<svg id="Layer_1" xmlns="http://www.w3.org/2000/svg" version="1.1" viewBox="0 0 668.19 356.56">
  <!-- Generator: Adobe Illustrator 29.5.0, SVG Export Plug-In . SVG Version: 2.1.0 Build 137)  -->
  <defs>
    <style>
      .st0 {
        fill: #fff;
      }
    </style>
  </defs>
  <path class="st0" d="M190.6,54.52c-35.56,11.61-69.32,66.46-85.1,98.5-3.16,6.41-6.13,16.54-9.58,22.1-1.93,3.11-8.17,7.33-11,10.66-8.4,9.9-16.36,25.08-13.62,38.46.74,3.59,4.94,8.18,4.93,10.48-.04,6-5.57,21.24-6.95,28.4-1.6,8.31-5.02,25.55-4.45,33.33.52,7.08,7.21,8.41,9.54,2.52,2.36-5.98,3.68-19.12,5.36-26.33,2.61-11.23,5.26-22.47,8.37-33.57,21.97-3.4,38.13-18.49,53.65-33.01,1.23-1.15,7.61-9.23,9.27-7.97,1.19,2.45,10.31,44.32,10.63,46.04,4.1,22.11,7.93,44.23,12.7,65.93.54,2.47,1.7,8.45,4.55,8.68,2.93.24,4.88-1.77,5.39-4.46.98-5.11-1.39-22.33-2.09-28.59-1.5-13.4-3.38-27.58-5.66-41.98-1.11-9.59-7.98-38.99-9.87-44.11-1.76-4.75-3.79-9.41-6.12-13.94,20.75-26.95,44.91-57.29,55.04-90.3,6.67-21.74,6.51-51.12-24.98-40.83ZM138.95,184.61c-13.76,13.1-26.54,28.9-44.76,35.85-.88-.97,5.46-19.06,6.5-21.92,1.06-2.9,4.04-12.42,5.65-13.92,6.37-5.94,19.58-8.42,27.72-5.44,1.98.73,7.54,3.04,4.88,5.43ZM188.8,115.16c-10.8,20.11-24.71,38.46-38.68,56.41l-2.12.29c-9.17-7.37-22.2-9.58-33.29-5.46-1.63-2.12,15.34-32.41,17.87-36.64,11.63-19.37,32.13-46.84,51.7-58.27,6.05-3.53,20.42-11.57,20.71.39.25,10.37-10.99,33.59-16.19,43.27Z"/>
  <path class="st0" d="M254.83,106.51h34.59l45.55,177.82h-26.79l-10.72-45.06h-50.42l-10.72,45.06h-26.79l45.31-177.82ZM292.34,217.34l-12.18-51.15c-4.38-18.27-7.06-32.4-8.04-37.51-.98,5.12-3.65,19.24-8.04,37.27l-12.18,51.4h40.43Z"/>
  <path class="st0" d="M346.59,232.44h26.31c0,19.73,11.2,31.18,30.21,31.18s30.45-11.45,30.45-31.18v-102.06h-49.93v-23.87h76.24v125.93c0,33.62-21.68,54.32-56.75,54.32s-56.51-20.95-56.51-54.32Z"/>
  <path class="st0" d="M486.24,106.51h26.31v74.29h23.63l36.54-74.29h28.5l-42.14,85.01,44.33,92.81h-29.72l-38-80.63h-23.14v80.63h-26.31V106.51Z"/>
</svg>