<?xml version="1.0" encoding="UTF-8"?>
<svg id="Layer_1" xmlns="http://www.w3.org/2000/svg" version="1.1" viewBox="0 0 668.19 356.56">
  <!-- Generator: Adobe Illustrator 29.5.0, SVG Export Plug-In . SVG Version: 2.1.0 Build 137)  -->
  <defs>
    <style>
      .st0 {
        fill: #fff;
      }
    </style>
  </defs>
  <path class="st0" d="M429.75,65.27c-4.11-4.44-8.91-6.51-14.27-6.13-11.91.83-26.95,13.9-43.5,37.74-13.29,19.15-11.21,28.18-2.7,20.36,5.41-4.96,13.45-14.47,24.99-27.85,3.6-4.13,14.49-16.73,22-16.43,1.79.08,3.28.92,4.42,2.5,4.74,6.57,8.41,35.74,6.31,43.66-.53,2.01-6.04,10.48-10.46,17.3-2.69,4.15-5.25,8.08-6.33,10.01-9.18,16.34-26.44,49.28-39.1,86.57-12.84,37.76-17.06,68.61-12.6,91.65,2.12,10.93,7.25,18.56,14.08,20.98,1.49.53,3.07.79,4.66.79,4.6,0,9.55-2.16,14.59-6.39,8.67-7.31,17.24-23.47,25.46-48.06,8.22-24.57,12.92-48.08,14.15-54.69,5.84-30.96,9.73-64.83,10.69-92.94,1.46-41.99-2.71-68.59-12.38-79.05ZM376.43,328.71c-8.02-14.41,0-57.11,5.35-77.65,9.02-34.6,23.43-68.02,36.33-96.11l8.98-16.41-2.34,33.81c-1.89,19.48-12.68,118.4-38.94,152.04-1.38,1.79-4.6,5.92-7.14,5.92h-.18c-.83-.06-1.51-.59-2.06-1.59Z"/>
  <path class="st0" d="M248.28,105.68h34.59l45.55,177.82h-26.79l-10.72-45.06h-50.42l-10.72,45.06h-26.79l45.31-177.82ZM285.8,216.51l-12.18-51.15c-4.38-18.27-7.06-32.4-8.04-37.51-.98,5.12-3.65,19.24-8.04,37.27l-12.18,51.4h40.43Z"/>
  <path class="st0" d="M70.45,105.68h55.78c33.37,0,55.54,20.7,55.54,52.13,0,23.63-12.91,42.14-33.61,49.2l36.05,76.49h-29.96l-32.4-73.08h-25.09v73.08h-26.31V105.68ZM126.23,187.03c17.54,0,28.74-11.2,28.74-28.74s-11.45-29.23-28.74-29.23h-29.47v57.97h29.47Z"/>
  <path class="st0" d="M480.57,105.99h26.31v74.29h23.63l36.54-74.29h28.5l-42.14,85.01,44.33,92.81h-29.72l-38-80.63h-23.14v80.63h-26.31V105.99Z"/>
</svg>