<?xml version="1.0" encoding="UTF-8"?>
<svg id="Layer_1" xmlns="http://www.w3.org/2000/svg" version="1.1" viewBox="0 0 668.19 356.56">
  <!-- Generator: Adobe Illustrator 29.5.0, SVG Export Plug-In . SVG Version: 2.1.0 Build 137)  -->
  <defs>
    <style>
      .st0 {
        fill: #fff;
      }
    </style>
  </defs>
  <path class="st0" d="M326.15,257.57c-.57-.87-1.44-1.41-2.38-1.46-.88-.06-1.75.32-2.34,1.03l-.09.11c-6.04,8.14-10.28,17.37-14.39,26.31-1.78,3.88-3.63,7.89-5.58,11.74l-1.18,2.32c-2.73,5.41-6.76,13.37-10.65,19.44-1.48,2.31-5.06,1.17-4.98-1.57.02-.87.06-1.74.1-2.6.16-3.09.6-6.58,1.01-9.96l.29-2.31c3.33-27.69,10.24-55.29,16.92-81.99,4.58-18.27,19.93-78.78,23.05-100.94.76-5.18-.34-6.39-2.07-6.95-2.59-.85-5.13.48-7.35,7.91-.38,1.29-11.71,40.89-40.2,97.56-12.71,25.29-34.06,57.93-51.53,70.52-3.89,2.8-6.89,3.95-8.44,3.2-1.8-.85-2.92-4.55-3.33-11.03-2.08-32.55,17.42-83.98,25.9-104.58,12.36-30.05,25.63-55.51,39.44-75.7,10.33-15.11,25.45-33.91,31.73-31.95,5.87,1.84-1.67,22.89-9.02,45.37-10.36,31.69-9.74,29.09-14.09,43.11-1.92,6.89,5.17,7.18,6.85,2.83,12.64-32.85,16.73-46.14,26.94-80.15,8.2-27.32-8.67-26.14-17.96-22.51-22.46,8.75-50.44,59.59-55.82,69.7-21.51,40.4-38.18,85.88-44.58,121.66-3.29,18.38-5.22,42.43,4.36,52.58,3.6,3.82,8.46,5.39,14.43,4.69,13.76-1.64,31.67-20.82,53.29-57.1l8.56-16.06c-4.74,21.08-9.22,42.67-11.25,64.26l-.14,1.4c-.97,10.2-2.79,29.17,1.41,37.18,1.6,3.05,4.16,5.22,7.22,6.1,1.03.29,2.09.43,3.17.43,2.31,0,4.68-.66,6.91-1.98,7.21-4.23,15.81-22.98,23.28-40.75l1.73-4.08c2.47-5.84,5.03-11.88,7.09-17.73,5.46-15.42,4.24-17.27,3.73-18.06Z"/>
  <path class="st0" d="M341.08,232.61h26.31c0,19.73,11.2,31.18,30.21,31.18s30.45-11.45,30.45-31.18v-102.06h-49.93v-23.87h76.24v125.93c0,33.62-21.68,54.32-56.75,54.32s-56.51-20.95-56.51-54.32Z"/>
  <path class="st0" d="M480.74,106.68h26.31v74.29h23.63l36.54-74.29h28.5l-42.14,85.01,44.33,92.81h-29.72l-38-80.63h-23.14v80.63h-26.31V106.68Z"/>
  <path class="st0" d="M71.49,106.68h55.78c33.37,0,55.54,20.7,55.54,52.13,0,23.63-12.91,42.14-33.61,49.2l36.05,76.49h-29.96l-32.4-73.08h-25.09v73.08h-26.31V106.68ZM127.27,188.03c17.54,0,28.74-11.2,28.74-28.74s-11.45-29.23-28.74-29.23h-29.47v57.97h29.47Z"/>
</svg>