<?xml version="1.0" encoding="UTF-8"?>
<svg id="Layer_1" xmlns="http://www.w3.org/2000/svg" version="1.1" viewBox="0 0 668.19 356.56">
  <!-- Generator: Adobe Illustrator 29.5.0, SVG Export Plug-In . SVG Version: 2.1.0 Build 137)  -->
  <defs>
    <style>
      .st0 {
        fill: #fff;
      }
    </style>
  </defs>
  <path class="st0" d="M228.55,106.42h34.59l45.55,177.82h-26.79l-10.72-45.06h-50.42l-10.72,45.06h-26.79l45.31-177.82ZM266.06,217.25l-12.18-51.15c-4.38-18.27-7.06-32.4-8.04-37.51-.98,5.12-3.65,19.24-8.04,37.27l-12.18,51.4h40.43Z"/>
  <path class="st0" d="M320.31,232.35h26.31c0,19.73,11.2,31.18,30.21,31.18s30.45-11.45,30.45-31.18v-102.06h-49.93v-23.87h76.24v125.93c0,33.62-21.68,54.32-56.75,54.32s-56.51-20.95-56.51-54.32Z"/>
  <path class="st0" d="M50.71,106.42h55.78c33.37,0,55.54,20.7,55.54,52.13,0,23.63-12.91,42.14-33.61,49.2l36.05,76.49h-29.96l-32.4-73.08h-25.09v73.08h-26.31V106.42ZM106.49,187.77c17.54,0,28.74-11.2,28.74-28.74s-11.45-29.23-28.74-29.23h-29.47v57.97h29.47Z"/>
  <path class="st0" d="M584.06,282.86c3.83,5.94,8.88,12.33,13.12,18.14,3.1,4.24,20.13,23.78,20.28,26.49.14,2.51-1.97,4.39-4.34,4.17-5.11-.49-32.73-34.99-37.21-41.16-17.29-23.85-33.02-51.62-41.87-79.75-1.75.75-2.43,4.66-2.98,6.43-4.75,15.31-14.25,56.74-27.45,64.89-6.77,4.18-14.94,2.45-20.18-3.31-19.97-22-22.38-113.03-20.9-143.02.29-5.94,1.69-23.24,3.79-27.98,1.37-3.1,4.54-5.11,7.73-3.38,3.94,3.53,2.15,23.36,2.39,29.46,1.41,35.82,2.54,84.03,13.01,118.05.46,1.5,4.84,14.56,6.89,12.99,14.6-33.19,22.52-69,33.48-103.54,12.79-40.33,26.23-83.39,42.47-122.35,1.58-3.78,9.71-23.97,12.07-24.8,4.84.21,6.02,2.3,5.07,7.17-18.76,53.96-34.98,108.79-49.43,164.09,10,34.08,24.81,67.58,44.06,97.44Z"/>
</svg>